<svg width="37" height="37" viewBox="0 0 37 37" fill="none" xmlns="http://www.w3.org/2000/svg">
<g clip-path="url(#clip0_15_241)">
<path d="M37 8.41287V29.8559C37 31.2496 35.8715 32.3781 34.4778 32.3781H28.5902V18.0837L18.5 25.6533L8.40979 18.0837V32.3796H2.52217C2.19082 32.3796 1.86272 32.3143 1.55662 32.1875C1.25052 32.0606 0.972406 31.8747 0.738181 31.6404C0.503956 31.406 0.318206 31.1278 0.191546 30.8216C0.0648863 30.5154 -0.000202063 30.1873 4.71213e-07 29.8559V8.41287C4.71213e-07 5.29408 3.55971 3.51345 6.05413 5.38504L8.40979 7.15333L18.5 14.7198L28.5902 7.15025L30.9459 5.38504C33.4387 3.515 37 5.29408 37 8.41287Z" fill="black"/>
</g>
<defs>
<clipPath id="clip0_15_241">
<rect width="37" height="37" fill="white"/>
</clipPath>
</defs>
</svg>
