<svg width="21" height="23" viewBox="0 0 21 23" fill="none" xmlns="http://www.w3.org/2000/svg">
<path d="M16.211 13.8656C15.9472 14.16 15.8261 14.5858 15.8861 15.0034L16.7915 20.7749C16.8678 21.264 16.6886 21.7591 16.3332 22.0418C15.9849 22.3351 15.5216 22.3702 15.1417 22.1356L10.6315 19.4259C10.4746 19.3297 10.3005 19.2781 10.1223 19.2722H9.8463C9.75058 19.2886 9.65689 19.3238 9.57135 19.3778L5.06006 22.1004C4.83704 22.2295 4.58449 22.2752 4.33703 22.2295C3.73416 22.0981 3.33192 21.4365 3.4307 20.7385L4.33703 14.9671C4.39711 14.5459 4.27593 14.1178 4.01217 13.8186L0.334911 9.71293C0.027369 9.36923 -0.0795578 8.85308 0.0609746 8.38738C0.197434 7.92284 0.545709 7.58383 0.966288 7.50758L6.02749 6.66181C6.41243 6.61606 6.75052 6.34625 6.92364 5.94741L9.15383 0.680375C9.20678 0.563069 9.27501 0.455147 9.3575 0.363648L9.44915 0.281534C9.49701 0.220535 9.552 0.170094 9.6131 0.129037L9.7241 0.0821142L9.89722 0H10.3259C10.7088 0.0457493 11.0459 0.309688 11.2221 0.703836L13.4818 5.94741C13.6448 6.331 13.9615 6.59729 14.327 6.66181L19.3882 7.50758C19.816 7.57797 20.1734 7.91815 20.3149 8.38738C20.4484 8.85777 20.3333 9.37392 20.0196 9.71293L16.211 13.8656Z" fill="#FBC199"/>
</svg>